<svg width="960" height="640" viewBox="0 0 960 640" fill="none" xmlns="http://www.w3.org/2000/svg">
  <g opacity="0.98" stroke="rgba(245,249,255,0.9)" stroke-linecap="round" stroke-linejoin="round">
    <path d="M38 522C162 430 252 396 384 382C536 366 666 396 922 284" stroke="rgba(245,249,255,0.28)" stroke-width="2.2" stroke-dasharray="12 18"/>
    <path d="M104 588C244 478 354 434 500 416C654 398 754 414 920 354" stroke="rgba(141,223,255,0.24)" stroke-width="1.9" stroke-dasharray="12 20"/>
    <path d="M184 120C262 164 308 222 344 292C372 346 442 388 562 414" stroke="rgba(203,255,82,0.16)" stroke-width="1.8" stroke-dasharray="10 18"/>

    <g transform="translate(330 128) scale(2.34)">
      <path d="M16 28 31 7h31l15 21-15 21H31Z" stroke-width="5.5"/>
      <path d="M60 28 75 7h31l15 21-15 21H75Z" stroke-width="5.5"/>
      <path d="M91 49 106 28h18l15 21-15 21h-18Z" stroke-width="5.5"/>
      <path d="M31 49 47 76h31l15-27" stroke-width="5.5"/>
      <path d="M47 76 62.5 97h31L109 76" stroke-width="5.5"/>
      <path d="M62.5 49 78 70" stroke-width="5.5"/>
      <path d="M44 28 59 7" stroke-width="5.5"/>
      <path d="M88 28 103 7" stroke-width="5.5"/>
    </g>

    <g opacity="0.28" transform="translate(182 96) scale(1.08)">
      <path d="M16 28 31 7h31l15 21-15 21H31Z" stroke-width="4.3"/>
      <path d="M60 28 75 7h31l15 21-15 21H75Z" stroke-width="4.3"/>
      <path d="M91 49 106 28h18l15 21-15 21h-18Z" stroke-width="4.3"/>
      <path d="M31 49 47 76h31l15-27" stroke-width="4.3"/>
      <path d="M47 76 62.5 97h31L109 76" stroke-width="4.3"/>
      <path d="M62.5 49 78 70" stroke-width="4.3"/>
      <path d="M44 28 59 7" stroke-width="4.3"/>
      <path d="M88 28 103 7" stroke-width="4.3"/>
    </g>

    <g opacity="0.22" transform="translate(704 380) scale(1.04)">
      <path d="M16 28 31 7h31l15 21-15 21H31Z" stroke-width="4.1"/>
      <path d="M60 28 75 7h31l15 21-15 21H75Z" stroke-width="4.1"/>
      <path d="M91 49 106 28h18l15 21-15 21h-18Z" stroke-width="4.1"/>
      <path d="M31 49 47 76h31l15-27" stroke-width="4.1"/>
      <path d="M47 76 62.5 97h31L109 76" stroke-width="4.1"/>
      <path d="M62.5 49 78 70" stroke-width="4.1"/>
      <path d="M44 28 59 7" stroke-width="4.1"/>
      <path d="M88 28 103 7" stroke-width="4.1"/>
    </g>

    <path d="M232 188H374" stroke="rgba(245,249,255,0.26)" stroke-width="1.5"/>
    <path d="M580 258H818" stroke="rgba(245,249,255,0.22)" stroke-width="1.5"/>
    <path d="M526 462H826" stroke="rgba(245,249,255,0.18)" stroke-width="1.5"/>
  </g>

  <g fill="rgba(134,213,255,0.88)">
    <circle cx="374" cy="188" r="5"/>
    <circle cx="818" cy="258" r="5"/>
    <circle cx="826" cy="462" r="5"/>
    <circle cx="618" cy="406" r="5.8"/>
  </g>
</svg>
