<svg width="1920" height="960" viewBox="0 0 1920 960" fill="none" xmlns="http://www.w3.org/2000/svg">
  <g stroke="#F7FAFD" stroke-linecap="round" stroke-linejoin="round">
    <path d="M-84 642C26 458 118 466 230 446C398 416 534 360 692 344C806 332 872 320 980 276C1088 232 1184 182 1328 146C1464 112 1602 210 1730 204C1844 198 1916 214 2008 182" stroke-width="3.4" stroke-opacity="0.96"/>
    <path d="M-54 826C70 650 166 672 276 640C404 602 530 554 666 540C772 528 862 514 956 462C1052 410 1168 370 1290 338C1440 300 1584 264 1712 220C1826 182 1924 112 2016 88" stroke-width="3" stroke-opacity="0.92"/>
    <path d="M42 918C156 796 254 790 366 752C502 706 624 662 766 646C870 634 974 630 1090 598C1206 566 1328 540 1450 494C1578 446 1708 382 1838 316C1924 272 1984 226 2048 164" stroke-width="2.8" stroke-opacity="0.86"/>
    <path d="M1208 82C1324 44 1424 34 1520 54C1614 74 1704 128 1802 130C1902 132 1972 108 2044 78" stroke-width="2.2" stroke-opacity="0.52"/>
  </g>
</svg>
